<svg xmlns="http://www.w3.org/2000/svg" viewBox="0 0 1536 730" preserveAspectRatio="xMidYMid" width="1536" height="730" xmlns:xlink="http://www.w3.org/1999/xlink" style="shape-rendering:auto;display:block;background-position-x:0%;background-position-y:0%;background-size:auto;background-origin:padding-box;background-clip:border-box;background:scroll rgb(255, 235, 189) none  repeat;width:1536px;height:730px;;animation:none"><g><defs><filter height="3" width="3" y="-1" x="-1" id="blur-3vvd53w6y3j-1"><feGaussianBlur stdDeviation="3"></feGaussianBlur></filter>
<filter height="3" width="3" y="-1" x="-1" id="blur-3vvd53w6y3j-2"><feGaussianBlur stdDeviation="1.5"></feGaussianBlur></filter>
<filter height="3" width="3" y="-1" x="-1" id="blur-3vvd53w6y3j-3"><feGaussianBlur stdDeviation="1"></feGaussianBlur></filter></defs>
<circle fill="#fe0d02" r="0" transform="matrix(1,0,0,1,678.7978515625,494.0691833496094)" cy="0" cx="0" fill-opacity="0" style="fill:rgb(254, 13, 2);transform:matrix(1, 0, 0, 1, 678.798, 494.069);;animation:none"></circle>
<circle fill="#feb200" r="0" transform="matrix(1,0,0,1,686.0092163085938,693.9806518554688)" cy="0" cx="0" fill-opacity="0" style="fill:rgb(254, 178, 0);transform:matrix(1, 0, 0, 1, 686.009, 693.981);;animation:none"></circle>
<circle fill="#043b42" r="9.928356170654297" transform="matrix(1,0,0,1,718.3358154296875,352.73944091796875)" cy="0" cx="0" fill-opacity="0.926048" style="fill:rgb(4, 59, 66);transform:matrix(1, 0, 0, 1, 718.336, 352.739);;animation:none"></circle>
<circle fill="#fe0d02" r="0" transform="matrix(1,0,0,1,148.90802001953125,-117.13745880126953)" cy="0" cx="0" fill-opacity="0" style="fill:rgb(254, 13, 2);transform:matrix(1, 0, 0, 1, 148.908, -117.137);;animation:none"></circle>
<circle fill="#feb200" r="0" transform="matrix(1,0,0,1,1074.429443359375,-18.326305389404297)" cy="0" cx="0" fill-opacity="0" style="fill:rgb(254, 178, 0);transform:matrix(1, 0, 0, 1, 1074.43, -18.3263);;animation:none"></circle>
<circle fill="#043b42" r="8.48151683807373" transform="matrix(1,0,0,1,397.25201416015625,366.6365966796875)" cy="0" cx="0" fill-opacity="0.702406" style="fill:rgb(4, 59, 66);transform:matrix(1, 0, 0, 1, 397.252, 366.637);;animation:none"></circle>
<circle fill="#fe0d02" r="0" transform="matrix(1,0,0,1,367.955078125,835.34423828125)" cy="0" cx="0" fill-opacity="0" style="fill:rgb(254, 13, 2);transform:matrix(1, 0, 0, 1, 367.955, 835.344);;animation:none"></circle>
<circle fill="#feb200" r="1.764237403869629" transform="matrix(1,0,0,1,444.4495544433594,268.3558654785156)" cy="0" cx="0" fill-opacity="0.350291" style="fill:rgb(254, 178, 0);transform:matrix(1, 0, 0, 1, 444.45, 268.356);;animation:none"></circle>
<circle fill="#043b42" r="10.676153182983398" transform="matrix(1,0,0,1,-31.446338653564453,456.24359130859375)" cy="0" cx="0" fill-opacity="0.630087" style="fill:rgb(4, 59, 66);transform:matrix(1, 0, 0, 1, -31.4463, 456.244);;animation:none"></circle>
<circle fill="#fe0d02" r="5.872074127197266" transform="matrix(1,0,0,1,1300.3360595703125,635.9537963867188)" cy="0" cx="0" fill-opacity="0.756741" style="fill:rgb(254, 13, 2);transform:matrix(1, 0, 0, 1, 1300.34, 635.954);;animation:none"></circle>
<circle fill="#feb200" r="10.845995903015137" transform="matrix(1,0,0,1,284.7142333984375,449.1311950683594)" cy="0" cx="0" fill-opacity="0.883278" style="fill:rgb(254, 178, 0);transform:matrix(1, 0, 0, 1, 284.714, 449.131);;animation:none"></circle>
<circle fill="#043b42" r="0" transform="matrix(1,0,0,1,1473.7830810546875,587.201416015625)" cy="0" cx="0" fill-opacity="0" style="fill:rgb(4, 59, 66);transform:matrix(1, 0, 0, 1, 1473.78, 587.201);;animation:none"></circle>
<circle fill="#fe0d02" r="5.865258693695068" transform="matrix(1,0,0,1,393.47869873046875,532.4057006835938)" cy="0" cx="0" fill-opacity="0.543627" style="fill:rgb(254, 13, 2);transform:matrix(1, 0, 0, 1, 393.479, 532.406);;animation:none"></circle>
<circle fill="#feb200" r="0.16203095018863678" transform="matrix(1,0,0,1,337.2128601074219,386.5164489746094)" cy="0" cx="0" fill-opacity="0.009418" style="fill:rgb(254, 178, 0);transform:matrix(1, 0, 0, 1, 337.213, 386.516);;animation:none"></circle>
<circle fill="#043b42" r="3.0248470306396484" transform="matrix(1,0,0,1,625.3302001953125,585.9781494140625)" cy="0" cx="0" fill-opacity="0.806458" style="fill:rgb(4, 59, 66);transform:matrix(1, 0, 0, 1, 625.33, 585.978);;animation:none"></circle>
<circle fill="#fe0d02" r="3.367278575897217" transform="matrix(1,0,0,1,398.62811279296875,96.84294891357422)" cy="0" cx="0" fill-opacity="0.564934" style="fill:rgb(254, 13, 2);transform:matrix(1, 0, 0, 1, 398.628, 96.843);;animation:none"></circle>
<circle fill="#feb200" r="5.855726718902588" transform="matrix(1,0,0,1,276.92303466796875,392.8341064453125)" cy="0" cx="0" fill-opacity="0.351663" style="fill:rgb(254, 178, 0);transform:matrix(1, 0, 0, 1, 276.923, 392.834);;animation:none"></circle>
<circle fill="#043b42" r="0" transform="matrix(1,0,0,1,835.4420776367188,417.5008544921875)" cy="0" cx="0" fill-opacity="0" style="fill:rgb(4, 59, 66);transform:matrix(1, 0, 0, 1, 835.442, 417.501);;animation:none"></circle>
<circle fill="#fe0d02" r="3.8579959869384766" transform="matrix(1,0,0,1,554.59228515625,508.9430236816406)" cy="0" cx="0" fill-opacity="0.442139" style="fill:rgb(254, 13, 2);transform:matrix(1, 0, 0, 1, 554.592, 508.943);;animation:none"></circle>
<circle fill="#feb200" r="2.057305335998535" transform="matrix(1,0,0,1,468.9555358886719,368.6451416015625)" cy="0" cx="0" fill-opacity="0.173424" style="fill:rgb(254, 178, 0);transform:matrix(1, 0, 0, 1, 468.956, 368.645);;animation:none"></circle>
<circle fill="#043b42" r="0" transform="matrix(1,0,0,1,630.4928588867188,307.9041442871094)" cy="0" cx="0" fill-opacity="0" style="fill:rgb(4, 59, 66);transform:matrix(1, 0, 0, 1, 630.493, 307.904);;animation:none"></circle>
<circle fill="#fe0d02" r="0" transform="matrix(1,0,0,1,1098.105712890625,247.82498168945312)" cy="0" cx="0" fill-opacity="0" style="fill:rgb(254, 13, 2);transform:matrix(1, 0, 0, 1, 1098.11, 247.825);;animation:none"></circle>
<circle fill="#feb200" r="11.091462135314941" transform="matrix(1,0,0,1,978.5364379882812,329.108154296875)" cy="0" cx="0" fill-opacity="0.82626" style="fill:rgb(254, 178, 0);transform:matrix(1, 0, 0, 1, 978.536, 329.108);;animation:none"></circle>
<circle fill="#043b42" r="0" transform="matrix(1,0,0,1,-140.71885681152344,291.83319091796875)" cy="0" cx="0" fill-opacity="0" style="fill:rgb(4, 59, 66);transform:matrix(1, 0, 0, 1, -140.719, 291.833);;animation:none"></circle>
<circle fill="#fe0d02" r="3.705477714538574" transform="matrix(1,0,0,1,1167.251953125,591.0505981445312)" cy="0" cx="0" fill-opacity="0.355946" style="fill:rgb(254, 13, 2);transform:matrix(1, 0, 0, 1, 1167.25, 591.051);;animation:none"></circle>
<circle fill="#feb200" r="1.0014901161193848" transform="matrix(1,0,0,1,1440.50732421875,105.76805114746094)" cy="0" cx="0" fill-opacity="0.204356" style="fill:rgb(254, 178, 0);transform:matrix(1, 0, 0, 1, 1440.51, 105.768);;animation:none"></circle>
<circle fill="#043b42" r="13.975481986999512" transform="matrix(1,0,0,1,810.5803833007812,400.6637268066406)" cy="0" cx="0" fill-opacity="0.921792" style="fill:rgb(4, 59, 66);transform:matrix(1, 0, 0, 1, 810.58, 400.664);;animation:none"></circle>
<circle fill="#fe0d02" r="0" transform="matrix(1,0,0,1,565.2896728515625,685.4871215820312)" cy="0" cx="0" fill-opacity="0" style="fill:rgb(254, 13, 2);transform:matrix(1, 0, 0, 1, 565.29, 685.487);;animation:none"></circle>
<circle fill="#feb200" r="0" transform="matrix(1,0,0,1,919.1659545898438,494.7911376953125)" cy="0" cx="0" fill-opacity="0" style="fill:rgb(254, 178, 0);transform:matrix(1, 0, 0, 1, 919.166, 494.791);;animation:none"></circle>
<circle fill="#043b42" r="0.5106840133666992" transform="matrix(1,0,0,1,664.9343872070312,502.53912353515625)" cy="0" cx="0" fill-opacity="0.0335823" style="fill:rgb(4, 59, 66);transform:matrix(1, 0, 0, 1, 664.934, 502.539);;animation:none"></circle>
<circle fill="#fe0d02" r="17.15308380126953" transform="matrix(1,0,0,1,943.8306884765625,731.0066528320312)" cy="0" cx="0" fill-opacity="0.831103" style="fill:rgb(254, 13, 2);transform:matrix(1, 0, 0, 1, 943.831, 731.007);;animation:none"></circle>
<circle fill="#feb200" r="2.8965206146240234" transform="matrix(1,0,0,1,679.3963012695312,801.6734619140625)" cy="0" cx="0" fill-opacity="0.242867" style="fill:rgb(254, 178, 0);transform:matrix(1, 0, 0, 1, 679.396, 801.673);;animation:none"></circle>
<circle fill="#043b42" r="0.8695716857910156" transform="matrix(1,0,0,1,754.52001953125,725.0944213867188)" cy="0" cx="0" fill-opacity="0.176822" style="fill:rgb(4, 59, 66);transform:matrix(1, 0, 0, 1, 754.52, 725.094);;animation:none"></circle>
<circle fill="#fe0d02" r="0.41689252853393555" transform="matrix(1,0,0,1,402.45953369140625,474.9203796386719)" cy="0" cx="0" fill-opacity="0.10155" style="fill:rgb(254, 13, 2);transform:matrix(1, 0, 0, 1, 402.46, 474.92);;animation:none"></circle>
<circle fill="#feb200" r="0.6744894981384277" transform="matrix(1,0,0,1,603.0021362304688,410.0341491699219)" cy="0" cx="0" fill-opacity="0.16496" style="fill:rgb(254, 178, 0);transform:matrix(1, 0, 0, 1, 603.002, 410.034);;animation:none"></circle>
<circle fill="#043b42" r="2.573453903198242" transform="matrix(1,0,0,1,913.3717651367188,502.5787658691406)" cy="0" cx="0" fill-opacity="0.253917" style="fill:rgb(4, 59, 66);transform:matrix(1, 0, 0, 1, 913.372, 502.579);;animation:none"></circle>
<circle fill="#fe0d02" r="0" transform="matrix(1,0,0,1,1338.2127685546875,266.9229431152344)" cy="0" cx="0" fill-opacity="0" style="fill:rgb(254, 13, 2);transform:matrix(1, 0, 0, 1, 1338.21, 266.923);;animation:none"></circle>
<circle fill="#feb200" r="2.89986515045166" transform="matrix(1,0,0,1,1262.7421875,519.4588623046875)" cy="0" cx="0" fill-opacity="0.759395" style="fill:rgb(254, 178, 0);transform:matrix(1, 0, 0, 1, 1262.74, 519.459);;animation:none"></circle>
<circle fill="#043b42" r="2.994049549102783" transform="matrix(1,0,0,1,618.7298583984375,561.7154541015625)" cy="0" cx="0" fill-opacity="0.675075" style="fill:rgb(4, 59, 66);transform:matrix(1, 0, 0, 1, 618.73, 561.715);;animation:none"></circle>
<circle fill="#fe0d02" r="8.061798095703125" transform="matrix(1,0,0,1,992.3697509765625,500.5368957519531)" cy="0" cx="0" fill-opacity="0.604111" style="fill:rgb(254, 13, 2);transform:matrix(1, 0, 0, 1, 992.37, 500.537);;animation:none"></circle>
<circle fill="#feb200" r="8.511123657226562" transform="matrix(1,0,0,1,575.2492065429688,705.1552124023438)" cy="0" cx="0" fill-opacity="0.720693" style="fill:rgb(254, 178, 0);transform:matrix(1, 0, 0, 1, 575.249, 705.155);;animation:none"></circle>
<circle fill="#043b42" r="12.13518238067627" transform="matrix(1,0,0,1,1437.4117431640625,175.46080017089844)" cy="0" cx="0" fill-opacity="0.987428" style="fill:rgb(4, 59, 66);transform:matrix(1, 0, 0, 1, 1437.41, 175.461);;animation:none"></circle>
<circle fill="#fe0d02" r="5.709283351898193" transform="matrix(1,0,0,1,105.3628921508789,493.4549255371094)" cy="0" cx="0" fill-opacity="0.19437" style="fill:rgb(254, 13, 2);transform:matrix(1, 0, 0, 1, 105.363, 493.455);;animation:none"></circle>
<circle fill="#feb200" r="0.49931764602661133" transform="matrix(1,0,0,1,713.8885498046875,-95.24613952636719)" cy="0" cx="0" fill-opacity="0.0644447" style="fill:rgb(254, 178, 0);transform:matrix(1, 0, 0, 1, 713.889, -95.2461);;animation:none"></circle>
<circle fill="#043b42" r="13.383469581604004" transform="matrix(1,0,0,1,966.5275268554688,194.38217163085938)" cy="0" cx="0" fill-opacity="0.980218" style="fill:rgb(4, 59, 66);transform:matrix(1, 0, 0, 1, 966.528, 194.382);;animation:none"></circle>
<circle fill="#fe0d02" r="3.112180471420288" transform="matrix(1,0,0,1,1360.02392578125,652.855712890625)" cy="0" cx="0" fill-opacity="0.510259" style="fill:rgb(254, 13, 2);transform:matrix(1, 0, 0, 1, 1360.02, 652.856);;animation:none"></circle>
<circle fill="#feb200" r="10.130668640136719" transform="matrix(1,0,0,1,992.1092529296875,384.7621154785156)" cy="0" cx="0" fill-opacity="0.959899" style="fill:rgb(254, 178, 0);transform:matrix(1, 0, 0, 1, 992.109, 384.762);;animation:none"></circle>
<circle fill="#043b42" r="2.417774200439453" transform="matrix(1,0,0,1,1098.749267578125,456.0276184082031)" cy="0" cx="0" fill-opacity="0.21688" style="fill:rgb(4, 59, 66);transform:matrix(1, 0, 0, 1, 1098.75, 456.028);;animation:none"></circle>
<circle fill="#fe0d02" r="0" transform="matrix(1,0,0,1,353.8654479980469,385.8645324707031)" cy="0" cx="0" fill-opacity="0" style="fill:rgb(254, 13, 2);transform:matrix(1, 0, 0, 1, 353.865, 385.865);;animation:none"></circle>
<circle fill="#feb200" r="3.8051369190216064" transform="matrix(1,0,0,1,605.7949829101562,12.419183731079102)" cy="0" cx="0" fill-opacity="0.865712" style="fill:rgb(254, 178, 0);transform:matrix(1, 0, 0, 1, 605.795, 12.4192);;animation:none"></circle>
<circle fill="#043b42" r="0" transform="matrix(1,0,0,1,1089.284912109375,788.1682739257812)" cy="0" cx="0" fill-opacity="0" style="fill:rgb(4, 59, 66);transform:matrix(1, 0, 0, 1, 1089.28, 788.168);;animation:none"></circle>
<circle fill="#fe0d02" r="0" transform="matrix(1,0,0,1,1166.7105712890625,398.2286071777344)" cy="0" cx="0" fill-opacity="0" style="fill:rgb(254, 13, 2);transform:matrix(1, 0, 0, 1, 1166.71, 398.229);;animation:none"></circle>
<circle fill="#feb200" r="1.509029746055603" transform="matrix(1,0,0,1,562.5648803710938,409.20880126953125)" cy="0" cx="0" fill-opacity="0.088709" style="fill:rgb(254, 178, 0);transform:matrix(1, 0, 0, 1, 562.565, 409.209);;animation:none"></circle>
<circle fill="#043b42" r="0" transform="matrix(1,0,0,1,383.42523193359375,588.8253173828125)" cy="0" cx="0" fill-opacity="0" style="fill:rgb(4, 59, 66);transform:matrix(1, 0, 0, 1, 383.425, 588.825);;animation:none"></circle>
<circle fill="#fe0d02" r="1.7444133758544922" transform="matrix(1,0,0,1,349.4949035644531,413.1608581542969)" cy="0" cx="0" fill-opacity="0.182518" style="fill:rgb(254, 13, 2);transform:matrix(1, 0, 0, 1, 349.495, 413.161);;animation:none"></circle>
<circle fill="#feb200" r="2.948176622390747" transform="matrix(1,0,0,1,138.86209106445312,520.4569702148438)" cy="0" cx="0" fill-opacity="0.540319" style="fill:rgb(254, 178, 0);transform:matrix(1, 0, 0, 1, 138.862, 520.457);;animation:none"></circle>
<circle fill="#043b42" r="0.340362548828125" transform="matrix(1,0,0,1,392.2295837402344,567.2330932617188)" cy="0" cx="0" fill-opacity="0.0331815" style="fill:rgb(4, 59, 66);transform:matrix(1, 0, 0, 1, 392.23, 567.233);;animation:none"></circle>
<circle fill="#fe0d02" r="2.6523232460021973" transform="matrix(1,0,0,1,961.5862426757812,653.1931762695312)" cy="0" cx="0" fill-opacity="0.611618" style="fill:rgb(254, 13, 2);transform:matrix(1, 0, 0, 1, 961.586, 653.193);;animation:none"></circle>
<circle fill="#feb200" r="1.3117446899414062" transform="matrix(1,0,0,1,1214.201416015625,252.64727783203125)" cy="0" cx="0" fill-opacity="0.22215" style="fill:rgb(254, 178, 0);transform:matrix(1, 0, 0, 1, 1214.2, 252.647);;animation:none"></circle>
<circle fill="#043b42" r="5.117001533508301" transform="matrix(1,0,0,1,1423.1097412109375,-37.17942810058594)" cy="0" cx="0" fill-opacity="0.52299" style="fill:rgb(4, 59, 66);transform:matrix(1, 0, 0, 1, 1423.11, -37.1794);;animation:none"></circle>
<circle fill="#fe0d02" r="0" transform="matrix(1,0,0,1,275.03887939453125,269.30242919921875)" cy="0" cx="0" fill-opacity="0" style="fill:rgb(254, 13, 2);transform:matrix(1, 0, 0, 1, 275.039, 269.302);;animation:none"></circle>
<circle fill="#feb200" r="0.907012939453125" transform="matrix(1,0,0,1,951.27392578125,614.4678344726562)" cy="0" cx="0" fill-opacity="0.0550778" style="fill:rgb(254, 178, 0);transform:matrix(1, 0, 0, 1, 951.274, 614.468);;animation:none"></circle>
<circle fill="#043b42" r="2.791576385498047" transform="matrix(1,0,0,1,684.1979370117188,-29.993032455444336)" cy="0" cx="0" fill-opacity="0.183556" style="fill:rgb(4, 59, 66);transform:matrix(1, 0, 0, 1, 684.198, -29.993);;animation:none"></circle>
<circle fill="#fe0d02" r="7.9756693840026855" transform="matrix(1,0,0,1,-48.17460250854492,384.6877136230469)" cy="0" cx="0" fill-opacity="0.70258" style="fill:rgb(254, 13, 2);transform:matrix(1, 0, 0, 1, -48.1746, 384.688);;animation:none"></circle>
<circle fill="#feb200" r="5.749056816101074" transform="matrix(1,0,0,1,27.17889976501465,191.38613891601562)" cy="0" cx="0" fill-opacity="0.958055" style="fill:rgb(254, 178, 0);transform:matrix(1, 0, 0, 1, 27.1789, 191.386);;animation:none"></circle>
<circle fill="#043b42" r="2.577725410461426" transform="matrix(1,0,0,1,572.5047607421875,182.64404296875)" cy="0" cx="0" fill-opacity="0.248989" style="fill:rgb(4, 59, 66);transform:matrix(1, 0, 0, 1, 572.505, 182.644);;animation:none"></circle>
<circle fill="#fe0d02" r="11.913074493408203" transform="matrix(1,0,0,1,111.5945816040039,670.9354858398438)" cy="0" cx="0" fill-opacity="0.686938" style="fill:rgb(254, 13, 2);transform:matrix(1, 0, 0, 1, 111.595, 670.936);;animation:none"></circle>
<circle fill="#feb200" r="5.003335952758789" transform="matrix(1,0,0,1,881.762939453125,264.69500732421875)" cy="0" cx="0" fill-opacity="0.966413" style="fill:rgb(254, 178, 0);transform:matrix(1, 0, 0, 1, 881.763, 264.695);;animation:none"></circle>
<circle fill="#043b42" r="6.576724529266357" transform="matrix(1,0,0,1,1052.7828369140625,602.9926147460938)" cy="0" cx="0" fill-opacity="0.309505" style="fill:rgb(4, 59, 66);transform:matrix(1, 0, 0, 1, 1052.78, 602.993);;animation:none"></circle>
<circle fill="#fe0d02" r="0" transform="matrix(1,0,0,1,377.6637878417969,25.13051986694336)" cy="0" cx="0" fill-opacity="0" style="fill:rgb(254, 13, 2);transform:matrix(1, 0, 0, 1, 377.664, 25.1305);;animation:none"></circle>
<circle fill="#feb200" r="4.4838080406188965" transform="matrix(1,0,0,1,271.5889587402344,293.13616943359375)" cy="0" cx="0" fill-opacity="0.19281" style="fill:rgb(254, 178, 0);transform:matrix(1, 0, 0, 1, 271.589, 293.136);;animation:none"></circle>
<circle fill="#043b42" r="11.55508041381836" transform="matrix(1,0,0,1,1459.1640625,314.8799743652344)" cy="0" cx="0" fill-opacity="0.761368" style="fill:rgb(4, 59, 66);transform:matrix(1, 0, 0, 1, 1459.16, 314.88);;animation:none"></circle>
<circle fill="#fe0d02" r="2.021308422088623" transform="matrix(1,0,0,1,174.9027557373047,70.58280181884766)" cy="0" cx="0" fill-opacity="0.52613" style="fill:rgb(254, 13, 2);transform:matrix(1, 0, 0, 1, 174.903, 70.5828);;animation:none"></circle>
<circle fill="#feb200" r="3.722945213317871" transform="matrix(1,0,0,1,460.75689697265625,516.3145141601562)" cy="0" cx="0" fill-opacity="0.332802" style="fill:rgb(254, 178, 0);transform:matrix(1, 0, 0, 1, 460.757, 516.315);;animation:none"></circle>
<circle fill="#043b42" r="5.620669841766357" transform="matrix(1,0,0,1,61.69792175292969,552.1533203125)" cy="0" cx="0" fill-opacity="0.979185" style="fill:rgb(4, 59, 66);transform:matrix(1, 0, 0, 1, 61.6979, 552.153);;animation:none"></circle>
<circle fill="#fe0d02" r="0" transform="matrix(1,0,0,1,933.3704223632812,672.2395629882812)" cy="0" cx="0" fill-opacity="0" style="fill:rgb(254, 13, 2);transform:matrix(1, 0, 0, 1, 933.37, 672.24);;animation:none"></circle>
<circle fill="#feb200" r="3.8053178787231445" transform="matrix(1,0,0,1,1332.0025634765625,277.0971984863281)" cy="0" cx="0" fill-opacity="0.212688" style="fill:rgb(254, 178, 0);transform:matrix(1, 0, 0, 1, 1332, 277.097);;animation:none"></circle>
<circle fill="#043b42" r="2.5017800331115723" transform="matrix(1,0,0,1,778.348876953125,237.1978302001953)" cy="0" cx="0" fill-opacity="0.5149" style="fill:rgb(4, 59, 66);transform:matrix(1, 0, 0, 1, 778.349, 237.198);;animation:none"></circle>
<circle fill="#fe0d02" r="2.570756673812866" transform="matrix(1,0,0,1,1242.74462890625,105.83952331542969)" cy="0" cx="0" fill-opacity="0.530679" style="fill:rgb(254, 13, 2);transform:matrix(1, 0, 0, 1, 1242.74, 105.84);;animation:none"></circle>
<circle fill="#feb200" r="3.575103282928467" transform="matrix(1,0,0,1,1143.465087890625,169.39906311035156)" cy="0" cx="0" fill-opacity="0.748733" style="fill:rgb(254, 178, 0);transform:matrix(1, 0, 0, 1, 1143.47, 169.399);;animation:none"></circle>
<circle fill="#043b42" r="14.256952285766602" transform="matrix(1,0,0,1,871.234130859375,193.78509521484375)" cy="0" cx="0" fill-opacity="0.866406" style="fill:rgb(4, 59, 66);transform:matrix(1, 0, 0, 1, 871.234, 193.785);;animation:none"></circle>
<circle fill="#fe0d02" r="0" transform="matrix(1,0,0,1,771.0294189453125,403.6203308105469)" cy="0" cx="0" fill-opacity="0" style="fill:rgb(254, 13, 2);transform:matrix(1, 0, 0, 1, 771.029, 403.62);;animation:none"></circle>
<circle fill="#feb200" r="3.199565887451172" transform="matrix(1,0,0,1,916.0763549804688,164.3963165283203)" cy="0" cx="0" fill-opacity="0.312219" style="fill:rgb(254, 178, 0);transform:matrix(1, 0, 0, 1, 916.076, 164.396);;animation:none"></circle>
<circle fill="#043b42" r="0" transform="matrix(1,0,0,1,564.8739013671875,742.28076171875)" cy="0" cx="0" fill-opacity="0" style="fill:rgb(4, 59, 66);transform:matrix(1, 0, 0, 1, 564.874, 742.281);;animation:none"></circle>
<circle fill="#fe0d02" r="0" transform="matrix(1,0,0,1,615.6162109375,392.5831298828125)" cy="0" cx="0" fill-opacity="0" style="fill:rgb(254, 13, 2);transform:matrix(1, 0, 0, 1, 615.616, 392.583);;animation:none"></circle>
<circle fill="#feb200" r="8.949832916259766" transform="matrix(1,0,0,1,1533.1873779296875,59.01511764526367)" cy="0" cx="0" fill-opacity="0.291304" style="fill:rgb(254, 178, 0);transform:matrix(1, 0, 0, 1, 1533.19, 59.0151);;animation:none"></circle>
<circle fill="#043b42" r="0.3445014953613281" transform="matrix(1,0,0,1,726.3175048828125,125.54226684570312)" cy="0" cx="0" fill-opacity="0.0225582" style="fill:rgb(4, 59, 66);transform:matrix(1, 0, 0, 1, 726.317, 125.542);;animation:none"></circle>
<circle fill="#fe0d02" r="0.3259587287902832" transform="matrix(1,0,0,1,1099.608154296875,530.953125)" cy="0" cx="0" fill-opacity="0.0728488" style="fill:rgb(254, 13, 2);transform:matrix(1, 0, 0, 1, 1099.61, 530.953);;animation:none"></circle>
<circle fill="#feb200" r="2.626784324645996" transform="matrix(1,0,0,1,728.0689086914062,181.3747100830078)" cy="0" cx="0" fill-opacity="0.287688" style="fill:rgb(254, 178, 0);transform:matrix(1, 0, 0, 1, 728.069, 181.375);;animation:none"></circle>
<circle fill="#043b42" r="1.929870367050171" transform="matrix(1,0,0,1,983.260009765625,557.6698608398438)" cy="0" cx="0" fill-opacity="0.496109" style="fill:rgb(4, 59, 66);transform:matrix(1, 0, 0, 1, 983.26, 557.67);;animation:none"></circle>
<circle fill="#fe0d02" r="14.231033325195312" transform="matrix(1,0,0,1,1485.8604736328125,563.9494018554688)" cy="0" cx="0" fill-opacity="0.782251" style="fill:rgb(254, 13, 2);transform:matrix(1, 0, 0, 1, 1485.86, 563.949);;animation:none"></circle>
<circle fill="#feb200" r="12.03679370880127" transform="matrix(1,0,0,1,587.9771118164062,169.65524291992188)" cy="0" cx="0" fill-opacity="0.675285" style="fill:rgb(254, 178, 0);transform:matrix(1, 0, 0, 1, 587.977, 169.655);;animation:none"></circle>
<circle fill="#043b42" r="6.873510837554932" transform="matrix(1,0,0,1,682.5101318359375,-0.041805267333984375)" cy="0" cx="0" fill-opacity="0.829289" style="fill:rgb(4, 59, 66);transform:matrix(1, 0, 0, 1, 682.51, -0.0418053);;animation:none"></circle>
<circle fill="#fe0d02" r="4.692088603973389" transform="matrix(1,0,0,1,21.699552536010742,570.032958984375)" cy="0" cx="0" fill-opacity="0.934198" style="fill:rgb(254, 13, 2);transform:matrix(1, 0, 0, 1, 21.6996, 570.033);;animation:none"></circle>
<circle fill="#feb200" r="3.177713394165039" transform="matrix(1,0,0,1,1489.2293701171875,430.7452392578125)" cy="0" cx="0" fill-opacity="0.255822" style="fill:rgb(254, 178, 0);transform:matrix(1, 0, 0, 1, 1489.23, 430.745);;animation:none"></circle>
<circle fill="#043b42" r="3.481501579284668" transform="matrix(1,0,0,1,1113.3057861328125,93.85162353515625)" cy="0" cx="0" fill-opacity="0.299656" style="fill:rgb(4, 59, 66);transform:matrix(1, 0, 0, 1, 1113.31, 93.8516);;animation:none"></circle>
<circle fill="#fe0d02" r="0" transform="matrix(1,0,0,1,1129.8641357421875,49.216346740722656)" cy="0" cx="0" fill-opacity="0" style="fill:rgb(254, 13, 2);transform:matrix(1, 0, 0, 1, 1129.86, 49.2163);;animation:none"></circle>
<circle fill="#feb200" r="2.2947731018066406" transform="matrix(1,0,0,1,184.1135711669922,610.798828125)" cy="0" cx="0" fill-opacity="0.186017" style="fill:rgb(254, 178, 0);transform:matrix(1, 0, 0, 1, 184.114, 610.799);;animation:none"></circle>
<circle fill="#043b42" r="3.54818058013916" transform="matrix(1,0,0,1,1315.986083984375,622.4865112304688)" cy="0" cx="0" fill-opacity="0.231248" style="fill:rgb(4, 59, 66);transform:matrix(1, 0, 0, 1, 1315.99, 622.487);;animation:none"></circle>
<circle fill="#fe0d02" r="5.19903564453125" transform="matrix(1,0,0,1,651.1026000976562,753.6468505859375)" cy="0" cx="0" fill-opacity="0.905726" style="fill:rgb(254, 13, 2);transform:matrix(1, 0, 0, 1, 651.103, 753.647);;animation:none"></circle>
<circle fill="#feb200" r="0" transform="matrix(1,0,0,1,158.8044891357422,605.199462890625)" cy="0" cx="0" fill-opacity="0" style="fill:rgb(254, 178, 0);transform:matrix(1, 0, 0, 1, 158.804, 605.199);;animation:none"></circle>
<circle fill="#043b42" r="1.1216111183166504" transform="matrix(1,0,0,1,1068.699462890625,212.44093322753906)" cy="0" cx="0" fill-opacity="0.196695" style="fill:rgb(4, 59, 66);transform:matrix(1, 0, 0, 1, 1068.7, 212.441);;animation:none"></circle>
<circle fill="#fe0d02" r="12.861921310424805" transform="matrix(1,0,0,1,708.925537109375,246.1806640625)" cy="0" cx="0" fill-opacity="0.841187" style="fill:rgb(254, 13, 2);transform:matrix(1, 0, 0, 1, 708.926, 246.181);;animation:none"></circle>
<circle fill="#feb200" r="0" transform="matrix(1,0,0,1,13.395835876464844,38.17536163330078)" cy="0" cx="0" fill-opacity="0" style="fill:rgb(254, 178, 0);transform:matrix(1, 0, 0, 1, 13.3958, 38.1754);;animation:none"></circle>
<circle fill="#043b42" r="0" transform="matrix(1,0,0,1,1333.3780517578125,200.86700439453125)" cy="0" cx="0" fill-opacity="0" style="fill:rgb(4, 59, 66);transform:matrix(1, 0, 0, 1, 1333.38, 200.867);;animation:none"></circle>
<circle fill="#fe0d02" r="0" transform="matrix(1,0,0,1,1193.2354736328125,284.6438903808594)" cy="0" cx="0" fill-opacity="0" style="fill:rgb(254, 13, 2);transform:matrix(1, 0, 0, 1, 1193.24, 284.644);;animation:none"></circle>
<circle fill="#feb200" r="0" transform="matrix(1,0,0,1,621.506103515625,286.940185546875)" cy="0" cx="0" fill-opacity="0" style="fill:rgb(254, 178, 0);transform:matrix(1, 0, 0, 1, 621.506, 286.94);;animation:none"></circle>
<circle fill="#043b42" r="12.810009002685547" transform="matrix(1,0,0,1,1504.0489501953125,524.8472290039062)" cy="0" cx="0" fill-opacity="0.984613" style="fill:rgb(4, 59, 66);transform:matrix(1, 0, 0, 1, 1504.05, 524.847);;animation:none"></circle>
<circle fill="#fe0d02" r="0" transform="matrix(1,0,0,1,210.11349487304688,305.13916015625)" cy="0" cx="0" fill-opacity="0" style="fill:rgb(254, 13, 2);transform:matrix(1, 0, 0, 1, 210.114, 305.139);;animation:none"></circle>
<circle fill="#feb200" r="0" transform="matrix(1,0,0,1,1159.2342529296875,397.67083740234375)" cy="0" cx="0" fill-opacity="0" style="fill:rgb(254, 178, 0);transform:matrix(1, 0, 0, 1, 1159.23, 397.671);;animation:none"></circle>
<circle fill="#043b42" r="4.2054338455200195" transform="matrix(1,0,0,1,928.8988037109375,46.26300048828125)" cy="0" cx="0" fill-opacity="0.31054" style="fill:rgb(4, 59, 66);transform:matrix(1, 0, 0, 1, 928.899, 46.263);;animation:none"></circle>
<circle fill="#fe0d02" r="15.183843612670898" transform="matrix(1,0,0,1,545.5000610351562,271.026123046875)" cy="0" cx="0" fill-opacity="0.85105" style="fill:rgb(254, 13, 2);transform:matrix(1, 0, 0, 1, 545.5, 271.026);;animation:none"></circle>
<circle fill="#feb200" r="0" transform="matrix(1,0,0,1,310.66461181640625,310.7291259765625)" cy="0" cx="0" fill-opacity="0" style="fill:rgb(254, 178, 0);transform:matrix(1, 0, 0, 1, 310.665, 310.729);;animation:none"></circle>
<circle fill="#043b42" r="0" transform="matrix(1,0,0,1,966.127685546875,320.91143798828125)" cy="0" cx="0" fill-opacity="0" style="fill:rgb(4, 59, 66);transform:matrix(1, 0, 0, 1, 966.128, 320.911);;animation:none"></circle>
<circle fill="#fe0d02" r="10.328521728515625" transform="matrix(1,0,0,1,456.65838623046875,314.8714294433594)" cy="0" cx="0" fill-opacity="0.899409" style="fill:rgb(254, 13, 2);transform:matrix(1, 0, 0, 1, 456.658, 314.871);;animation:none"></circle>
<circle fill="#feb200" r="2.059994697570801" transform="matrix(1,0,0,1,580.1551513671875,193.20892333984375)" cy="0" cx="0" fill-opacity="0.178814" style="fill:rgb(254, 178, 0);transform:matrix(1, 0, 0, 1, 580.155, 193.209);;animation:none"></circle>
<circle fill="#043b42" r="11.535964965820312" transform="matrix(1,0,0,1,919.0027465820312,95.26109313964844)" cy="0" cx="0" fill-opacity="0.902552" style="fill:rgb(4, 59, 66);transform:matrix(1, 0, 0, 1, 919.003, 95.2611);;animation:none"></circle>
<circle fill="#fe0d02" r="2.259105682373047" transform="matrix(1,0,0,1,284.71099853515625,73.41631317138672)" cy="0" cx="0" fill-opacity="0.384377" style="fill:rgb(254, 13, 2);transform:matrix(1, 0, 0, 1, 284.711, 73.4163);;animation:none"></circle>
<circle fill="#feb200" r="0" transform="matrix(1,0,0,1,1095.8026123046875,809.5297241210938)" cy="0" cx="0" fill-opacity="0" style="fill:rgb(254, 178, 0);transform:matrix(1, 0, 0, 1, 1095.8, 809.53);;animation:none"></circle>
<circle fill="#043b42" r="5.072430610656738" transform="matrix(1,0,0,1,71.12476348876953,496.70751953125)" cy="0" cx="0" fill-opacity="0.858764" style="fill:rgb(4, 59, 66);transform:matrix(1, 0, 0, 1, 71.1248, 496.708);;animation:none"></circle>
<g></g></g><!-- [ldio] generated by https://loading.io --></svg>